<svg version="1.1" id="Layer_1" xmlns="http://www.w3.org/2000/svg" x="0px"
     y="0px"
     width="100%" viewBox="0 0 599 514" enable-background="new 0 0 599 514" xml:space="preserve">
<path fill="#AE285D" opacity="1.000000" stroke="none"
      d="
M301.000000,0.999999 
	C400.666656,1.000000 500.333282,1.000000 600.000000,1.000000 
	C600.000000,172.333298 600.000000,343.666595 600.000000,514.999878 
	C400.333405,514.999939 200.666840,514.999939 1.000126,515.000000 
	C1.000000,514.000000 1.000000,513.000000 1.468272,511.527740 
	C3.767661,511.101807 5.598773,511.188385 7.429894,511.188599 
	C65.074318,511.194885 122.718910,511.133789 180.362823,511.303955 
	C184.965714,511.317566 187.354568,509.815643 189.610962,505.890198 
	C255.511536,391.241852 321.518982,276.654877 387.634521,162.130356 
	C389.922180,158.167679 389.892456,155.293243 387.597778,151.359436 
	C359.349792,102.933495 331.278717,54.404377 303.190918,5.885115 
	C302.301575,4.348816 301.723297,2.632429 301.000000,0.999999 
M338.057343,385.434204 
	C361.698975,426.332825 385.357574,467.221680 408.940338,508.154236 
	C410.362732,510.623077 411.650452,512.098694 414.940369,512.091858 
	C474.246552,511.968567 533.553040,512.007141 592.859436,511.993500 
	C594.054749,511.993225 595.250122,511.782043 596.739075,511.641602 
	C596.125061,510.425995 595.791382,509.675903 595.382751,508.969116 
	C559.330750,446.619171 523.293274,384.260773 487.097015,321.994720 
	C486.206940,320.463501 483.555573,319.109650 481.717316,319.098877 
	C422.747345,318.753296 363.776367,318.583771 304.805511,318.388550 
	C303.370514,318.383789 301.935486,318.387939 299.473633,318.387939 
	C312.557037,341.094299 325.142853,362.937103 338.057343,385.434204 
z"/>
    <path fill="#FFFFFF" opacity="1.000000" stroke="none"
          d="
M300.666687,0.999999
	C301.723297,2.632429 302.301575,4.348816 303.190918,5.885115
	C331.278717,54.404377 359.349792,102.933495 387.597778,151.359436
	C389.892456,155.293243 389.922180,158.167679 387.634521,162.130356
	C321.518982,276.654877 255.511536,391.241852 189.610962,505.890198
	C187.354568,509.815643 184.965714,511.317566 180.362823,511.303955
	C122.718910,511.133789 65.074318,511.194885 7.429894,511.188599
	C5.598773,511.188385 3.767661,511.101807 1.468272,511.027740
	C1.000000,511.000000 1.000000,510.500000 1.326886,510.122437
	C4.239411,504.723511 6.588909,499.563385 9.446366,494.701782
	C47.880592,429.310760 86.485802,364.020081 124.849617,298.587830
	C182.981476,199.439804 240.957657,100.200508 299.000000,1.000000
	C299.444458,1.000000 299.888885,1.000000 300.666687,0.999999
z"/>
    <path fill="#AE285D" opacity="1.000000" stroke="none"
          d="
M298.531342,1.000000
	C240.957657,100.200508 182.981476,199.439804 124.849617,298.587830
	C86.485802,364.020081 47.880592,429.310760 9.446366,494.701782
	C6.588909,499.563385 4.239411,504.723511 1.326886,509.872437
	C1.000000,340.425293 1.000000,170.850586 1.000000,1.000000
	C100.020721,1.000000 199.041702,1.000000 298.531342,1.000000
z"/>
    <path fill="#FFFFFF" opacity="1.000000" stroke="none"
          d="
M337.893005,385.107056 
	C325.142853,362.937103 312.557037,341.094299 299.473633,318.387939 
	C301.935486,318.387939 303.370514,318.383789 304.805511,318.388550 
	C363.776367,318.583771 422.747345,318.753296 481.717316,319.098877 
	C483.555573,319.109650 486.206940,320.463501 487.097015,321.994720 
	C523.293274,384.260773 559.330750,446.619171 595.382751,508.969116 
	C595.791382,509.675903 596.125061,510.425995 596.739075,511.641602 
	C595.250122,511.782043 594.054749,511.993225 592.859436,511.993500 
	C533.553040,512.007141 474.246552,511.968567 414.940369,512.091858 
	C411.650452,512.098694 410.362732,510.623077 408.940338,508.154236 
	C385.357574,467.221680 361.698975,426.332825 337.893005,385.107056 
z"/>
</svg>