<svg version="1.1" id="Layer_1" xmlns="http://www.w3.org/2000/svg" x="0px"
     y="0px"
     width="100%" viewBox="0 0 1080 1080" xml:space="preserve">
<path fill="#FFFFFF" opacity="1.000000" stroke="none"
      d="
M598.000000,1081.000000
	C398.689606,1081.000000 199.879227,1081.000000 1.034416,1081.000000 
	C1.034416,721.064514 1.034416,361.128967 1.034416,1.096730 
	C360.893951,1.096730 720.787903,1.096730 1080.840942,1.096730 
	C1080.840942,360.999939 1080.840942,720.999939 1080.840942,1081.000000 
	C920.128479,1081.000000 759.314270,1081.000000 598.000000,1081.000000 
M515.269897,618.407654 
	C515.842957,616.774048 516.182922,615.008423 517.022888,613.526001 
	C549.088989,556.932312 581.191895,500.359436 613.337769,443.811066 
	C614.721985,441.376160 615.570251,439.448090 613.888123,436.551208 
	C581.734009,381.176849 549.706604,325.728912 517.624084,270.312958 
	C517.025818,269.279602 516.077393,268.449005 514.956726,267.128357 
	C513.730469,269.068176 512.817139,270.418518 511.997589,271.823608 
	C499.016510,294.079468 486.058990,316.349121 473.073425,338.602386 
	C437.028778,400.372009 401.017914,462.161377 364.907318,523.892395 
	C340.147858,566.218689 315.261688,608.470947 290.400116,650.737427 
	C258.176025,705.520752 225.893631,760.269836 193.720627,815.083130 
	C190.659912,820.297729 188.198013,825.863831 185.152969,831.868408 
	C199.334595,831.868408 212.313004,831.884216 225.291397,831.865662 
	C277.781403,831.790649 330.271576,831.631165 382.761230,831.733459 
	C388.214752,831.744080 391.305450,830.049561 394.059692,825.229065 
	C411.392059,794.893738 429.073334,764.757812 446.644043,734.558716 
	C468.398163,697.169556 490.139557,659.772949 511.974579,622.431091 
	C512.888489,620.868164 514.693604,619.826233 516.022217,619.313782 
	C516.307190,619.911072 516.553467,620.530579 516.882629,621.102417 
	C556.785828,690.443726 596.718079,759.768372 636.520264,829.167603 
	C638.110107,831.939697 640.018188,832.104675 642.601196,832.103516 
	C707.920898,832.073608 773.240662,832.083496 838.560364,832.075562 
	C839.957886,832.075439 841.355408,831.947266 843.264282,831.853821 
	C842.090881,829.702820 841.264587,828.108887 840.367859,826.555603 
	C801.104187,758.546753 761.809692,690.555542 722.647217,622.488464 
	C720.933960,619.510742 718.956848,618.933105 715.892700,618.923462 
	C651.074707,618.718262 586.257080,618.424683 521.439270,618.178040 
	C519.639404,618.171204 517.838379,618.489197 515.269897,618.407654 
z"/>
    <path fill="#AE285D" opacity="1.000000" stroke="none"
          d="
M516.083557,618.541626 
	C514.693604,619.826233 512.888489,620.868164 511.974579,622.431091 
	C490.139557,659.772949 468.398163,697.169556 446.644043,734.558716 
	C429.073334,764.757812 411.392059,794.893738 394.059692,825.229065 
	C391.305450,830.049561 388.214752,831.744080 382.761230,831.733459 
	C330.271576,831.631165 277.781403,831.790649 225.291397,831.865662 
	C212.313004,831.884216 199.334595,831.868408 185.152969,831.868408 
	C188.198013,825.863831 190.659912,820.297729 193.720627,815.083130 
	C225.893631,760.269836 258.176025,705.520752 290.400116,650.737427 
	C315.261688,608.470947 340.147858,566.218689 364.907318,523.892395 
	C401.017914,462.161377 437.028778,400.372009 473.073425,338.602386 
	C486.058990,316.349121 499.016510,294.079468 511.997589,271.823608 
	C512.817139,270.418518 513.730469,269.068176 514.956726,267.128357 
	C516.077393,268.449005 517.025818,269.279602 517.624084,270.312958 
	C549.706604,325.728912 581.734009,381.176849 613.888123,436.551208 
	C615.570251,439.448090 614.721985,441.376160 613.337769,443.811066 
	C581.191895,500.359436 549.088989,556.932312 517.022888,613.526001 
	C516.182922,615.008423 515.842957,616.774048 515.661865,618.502319 
	C516.053894,618.596924 516.083557,618.541626 516.083557,618.541626 
z"/>
    <path fill="#AE285D" opacity="1.000000" stroke="none"
          d="
M516.052856,618.927734 
	C516.083557,618.541626 516.053894,618.596924 516.045898,618.626282
	C517.838379,618.489197 519.639404,618.171204 521.439270,618.178040 
	C586.257080,618.424683 651.074707,618.718262 715.892700,618.923462 
	C718.956848,618.933105 720.933960,619.510742 722.647217,622.488464 
	C761.809692,690.555542 801.104187,758.546753 840.367859,826.555603 
	C841.264587,828.108887 842.090881,829.702820 843.264282,831.853821 
	C841.355408,831.947266 839.957886,832.075439 838.560364,832.075562 
	C773.240662,832.083496 707.920898,832.073608 642.601196,832.103516 
	C640.018188,832.104675 638.110107,831.939697 636.520264,829.167603 
	C596.718079,759.768372 556.785828,690.443726 516.882629,621.102417 
	C516.553467,620.530579 516.307190,619.911072 516.052856,618.927734 
z"/>
</svg>