<svg version="1.1" id="Layer_1" xmlns="http://www.w3.org/2000/svg" xmlns:xlink="http://www.w3.org/1999/xlink" x="0px" y="0px"
	 width="100%" viewBox="0 0 1080 1080" enable-background="new 0 0 1080 1080" xml:space="preserve">
<path fill="#FFFFFF" opacity="1.000000" stroke="none" 
	d="
M597.000000,1081.000000 
	C398.022919,1081.000000 199.545807,1081.000000 1.034359,1081.000000 
	C1.034359,721.064453 1.034359,361.128906 1.034359,1.096672 
	C360.893982,1.096672 720.787964,1.096672 1080.841064,1.096672 
	C1080.841064,360.999939 1080.841064,720.999939 1080.841064,1081.000000 
	C919.795105,1081.000000 758.647522,1081.000000 597.000000,1081.000000 
M328.874054,585.350342 
	C283.551941,662.361206 238.213455,739.362488 192.948364,816.406921 
	C190.230988,821.032104 188.099792,826.001770 185.286774,831.629395 
	C188.285278,831.629395 190.084534,831.629517 191.883804,831.629456 
	C255.546249,831.627258 319.209045,831.532959 382.870514,831.780945 
	C388.556305,831.803040 391.369293,829.831909 394.049103,825.164124 
	C467.033173,698.038147 540.133728,570.979004 613.311890,443.964630 
	C615.156860,440.762360 614.979919,438.502930 613.177124,435.398193 
	C581.424194,380.715240 549.796387,325.959595 518.122314,271.230835 
	C517.356995,269.908447 516.371033,268.713715 515.093628,266.899353 
	C452.817566,373.357330 391.004272,479.024261 328.874054,585.350342 
M731.507812,637.980530 
	C728.592041,632.941040 725.552551,627.967651 722.810181,622.835449 
	C721.335754,620.076233 719.647644,618.889404 716.276123,618.881836 
	C650.975769,618.735962 585.675781,618.427795 520.375610,618.165710 
	C518.970276,618.160095 517.564331,618.304382 515.534790,618.411621 
	C516.678711,620.577393 517.459839,622.176514 518.345398,623.715576 
	C557.666382,692.050598 597.014587,760.370117 636.260193,828.748474 
	C637.836670,831.495117 639.646545,832.144348 642.603333,832.140747 
	C707.905457,832.061584 773.207642,832.083923 838.509827,832.076294 
	C839.913208,832.076111 841.316589,831.950928 843.811768,831.832092 
	C806.211426,766.911072 769.054993,702.756653 731.507812,637.980530 
M688.851868,909.500000 
	C688.851868,899.106384 688.851868,888.712769 688.851868,877.537659 
	C712.187561,897.913086 734.729126,917.595154 757.814514,937.752014 
	C757.814514,908.783203 757.814514,881.021301 757.814514,852.964478 
	C752.845337,852.964478 748.140259,852.964478 742.903748,852.964478 
	C742.903748,871.092041 742.903748,888.822021 742.903748,907.726685 
	C719.593384,887.308655 697.167725,867.665649 674.239319,847.582214 
	C674.239319,876.648071 674.239319,904.809509 674.239319,932.786743 
	C679.249573,932.786743 683.822937,932.786743 688.849915,932.786743 
	C688.849915,925.108459 688.849915,917.804260 688.851868,909.500000 
M523.515625,852.413696 
	C520.420166,852.413696 517.324707,852.413696 514.231323,852.413696 
	C514.231323,879.653015 514.231323,906.184204 514.231323,932.723145 
	C524.039307,932.723145 533.552917,933.356995 542.929626,932.497314 
	C549.047485,931.936279 555.395508,930.053772 560.886475,927.273926 
	C572.825134,921.229919 574.774780,904.642029 565.047119,895.510986 
	C562.475586,893.097107 559.325012,891.300049 556.438538,889.218506 
	C567.039795,878.493469 563.218262,858.287292 545.711487,854.573303 
	C538.793518,853.105652 531.567322,853.090515 523.515625,852.413696 
M826.516602,931.300720 
	C832.784607,931.917053 839.052612,932.533386 845.320618,933.149780 
	C845.501343,932.543213 845.682007,931.936646 845.862671,931.330078 
	C832.061401,917.269653 818.260132,903.209290 804.107422,888.790894 
	C818.369324,876.776001 832.171692,865.148315 846.841675,852.789612 
	C835.016418,851.218872 825.721008,851.379883 817.973633,860.069275 
	C812.258301,866.479370 805.022583,871.535400 798.453613,877.182312 
	C796.119995,879.188416 793.754883,881.157776 790.320435,884.059448 
	C790.320435,872.685059 790.320435,862.669250 790.320435,852.820801 
	C785.022339,852.820801 780.460999,852.820801 775.574463,852.820801 
	C775.574463,879.493530 775.574463,905.749878 775.574463,932.289734 
	C780.482666,932.289734 785.206726,932.289734 790.741089,932.289734 
	C790.741089,922.542664 790.656616,913.087219 790.808411,903.635620 
	C790.841003,901.609009 791.729126,899.596191 791.870056,899.020142 
	C803.308044,909.683594 814.630371,920.239319 826.516602,931.300720 
M262.661346,932.431885 
	C267.959900,932.678955 273.258484,932.926025 279.254883,933.205627 
	C263.679840,904.132080 248.648209,876.072876 233.090942,847.032471 
	C216.966202,876.011658 201.330215,904.112427 185.558395,932.457336 
	C200.694214,934.536316 200.841919,934.466614 207.462509,922.240967 
	C208.413437,920.484985 209.500732,918.776917 210.221695,916.928345 
	C211.312927,914.130493 213.255905,913.494934 216.084259,913.530640 
	C227.082214,913.669617 238.084137,913.674988 249.081879,913.527649 
	C251.957169,913.489197 253.623108,914.302429 254.837769,917.035156 
	C257.065186,922.046448 259.708435,926.872925 262.661346,932.431885 
M575.962402,933.008911 
	C577.460510,933.008911 578.996887,932.791931 580.449951,933.047791 
	C585.781738,933.986572 589.110535,932.118835 591.052063,926.881226 
	C592.424500,923.178650 594.567200,919.712036 596.732178,916.377808 
	C597.557373,915.106934 599.393433,913.730225 600.787170,913.710815 
	C612.265259,913.550964 623.748474,913.790222 635.228210,913.688538 
	C638.025574,913.663818 639.353760,914.797058 640.486145,917.158020 
	C642.640503,921.649536 645.007935,926.047485 647.492004,930.366394 
	C648.136169,931.486450 649.495300,932.862488 650.601624,932.932861 
	C655.152039,933.222290 659.731628,933.053894 665.066711,933.053894 
	C649.651123,904.304321 634.626465,876.283813 618.990906,847.124084 
	C602.922241,876.194458 587.392517,904.289734 571.604187,932.852844 
	C573.450073,932.935120 574.274170,932.971863 575.962402,933.008911 
M330.057220,887.619995 
	C338.222931,876.194824 346.388641,864.769653 354.710236,853.126404 
	C344.558502,851.263245 335.723480,851.148804 330.927063,862.081787 
	C329.682037,864.919678 327.394684,867.304810 325.556427,869.876709 
	C323.397247,872.897583 321.205719,875.895203 318.809601,879.205017 
	C313.279327,870.937012 308.253143,863.293884 303.055237,855.769409 
	C302.112457,854.404663 300.536713,852.693542 299.131775,852.574524 
	C294.415405,852.174744 289.644073,852.422668 283.560059,852.422668 
	C293.184631,866.213745 301.907227,878.712341 310.591766,891.156494 
	C300.552643,905.220215 290.754211,918.946777 280.299286,933.593018 
	C284.711792,933.593018 287.869720,933.261047 290.928802,933.669495 
	C295.719025,934.309021 298.471222,932.285828 301.032837,928.376831 
	C306.557404,919.946472 312.604004,911.858276 318.834290,903.069641 
	C325.367065,912.564209 331.431213,921.452454 337.603302,930.265076 
	C338.496796,931.540833 339.844574,933.293457 341.090179,933.387024 
	C345.936493,933.751038 350.826385,933.535400 356.749756,933.535400 
	C347.311676,919.736511 338.629974,906.948792 329.817841,894.251587 
	C328.324524,892.099915 327.426880,890.297791 330.057220,887.619995 
M451.825287,893.688965 
	C446.440491,890.787354 441.165100,887.653198 435.638306,885.053406 
	C430.690369,882.725769 425.321991,881.284668 420.398956,878.913086 
	C414.248932,875.950439 414.104309,869.314270 419.813080,865.435425 
	C426.168854,861.117004 434.907562,862.208252 441.445190,867.903503 
	C442.602722,868.911926 444.730682,870.015381 445.875854,869.600281 
	C449.196472,868.396423 452.244995,866.442200 455.464081,864.748840 
	C443.987518,849.153503 419.822449,846.536377 406.454315,859.008179 
	C398.196228,866.712463 398.491241,879.223572 407.529388,885.925537 
	C411.473846,888.850464 416.137665,890.878235 420.637115,892.963257 
	C426.196533,895.539429 432.276001,897.160156 437.496002,900.262024 
	C444.921204,904.674377 445.099091,914.905579 437.665253,919.298279 
	C433.819672,921.570618 428.518250,922.616333 424.020844,922.277100 
	C415.993561,921.671753 412.016815,915.924500 411.111359,907.681641 
	C405.835602,908.666626 401.052429,909.559692 395.488495,910.598450 
	C397.120697,914.483765 398.086884,917.869324 399.841949,920.779114 
	C408.860382,935.731506 432.769562,938.992798 448.067932,927.508423 
	C459.415039,918.990295 461.142151,905.551819 451.825287,893.688965 
M383.734558,926.382324 
	C383.734558,901.992981 383.734558,877.603699 383.734558,852.951538 
	C378.506195,852.951538 373.824249,852.951538 368.836273,852.951538 
	C368.836273,879.848206 368.836273,906.238586 368.836273,932.902954 
	C373.705719,932.902954 378.436035,932.902954 383.735046,932.902954 
	C383.735046,930.908691 383.735046,929.126709 383.734558,926.382324 
z"/>
<path fill="#AE285D" opacity="1.000000" stroke="none" 
	d="
M329.032532,585.020752 
	C391.004272,479.024261 452.817566,373.357330 515.093628,266.899353 
	C516.371033,268.713715 517.356995,269.908447 518.122314,271.230835 
	C549.796387,325.959595 581.424194,380.715240 613.177124,435.398193 
	C614.979919,438.502930 615.156860,440.762360 613.311890,443.964630 
	C540.133728,570.979004 467.033173,698.038147 394.049103,825.164124 
	C391.369293,829.831909 388.556305,831.803040 382.870514,831.780945 
	C319.209045,831.532959 255.546249,831.627258 191.883804,831.629456 
	C190.084534,831.629517 188.285278,831.629395 185.286774,831.629395 
	C188.099792,826.001770 190.230988,821.032104 192.948364,816.406921 
	C238.213455,739.362488 283.551941,662.361206 329.032532,585.020752 
z"/>
<path fill="#AE285D" opacity="1.000000" stroke="none" 
	d="
M731.703247,638.291382 
	C769.054993,702.756653 806.211426,766.911072 843.811768,831.832092 
	C841.316589,831.950928 839.913208,832.076111 838.509827,832.076294 
	C773.207642,832.083923 707.905457,832.061584 642.603333,832.140747 
	C639.646545,832.144348 637.836670,831.495117 636.260193,828.748474 
	C597.014587,760.370117 557.666382,692.050598 518.345398,623.715576 
	C517.459839,622.176514 516.678711,620.577393 515.534790,618.411621 
	C517.564331,618.304382 518.970276,618.160095 520.375610,618.165710 
	C585.675781,618.427795 650.975769,618.735962 716.276123,618.881836 
	C719.647644,618.889404 721.335754,620.076233 722.810181,622.835449 
	C725.552551,627.967651 728.592041,632.941040 731.703247,638.291382 
z"/>
<path fill="#AF2B5F" opacity="1.000000" stroke="none" 
	d="
M688.850891,910.000000 
	C688.849915,917.804260 688.849915,925.108459 688.849915,932.786743 
	C683.822937,932.786743 679.249573,932.786743 674.239319,932.786743 
	C674.239319,904.809509 674.239319,876.648071 674.239319,847.582214 
	C697.167725,867.665649 719.593384,887.308655 742.903748,907.726685 
	C742.903748,888.822021 742.903748,871.092041 742.903748,852.964478 
	C748.140259,852.964478 752.845337,852.964478 757.814514,852.964478 
	C757.814514,881.021301 757.814514,908.783203 757.814514,937.752014 
	C734.729126,917.595154 712.187561,897.913086 688.851868,877.537659 
	C688.851868,888.712769 688.851868,899.106384 688.850891,910.000000 
z"/>
<path fill="#AF2C60" opacity="1.000000" stroke="none" 
	d="
M523.998535,852.413818 
	C531.567322,853.090515 538.793518,853.105652 545.711487,854.573303 
	C563.218262,858.287292 567.039795,878.493469 556.438538,889.218506 
	C559.325012,891.300049 562.475586,893.097107 565.047119,895.510986 
	C574.774780,904.642029 572.825134,921.229919 560.886475,927.273926 
	C555.395508,930.053772 549.047485,931.936279 542.929626,932.497314 
	C533.552917,933.356995 524.039307,932.723145 514.231323,932.723145 
	C514.231323,906.184204 514.231323,879.653015 514.231323,852.413696 
	C517.324707,852.413696 520.420166,852.413696 523.998535,852.413818 
M531.629639,921.146362 
	C536.743713,920.787964 541.951233,920.912170 546.947632,919.945557 
	C552.820190,918.809448 555.748108,915.119873 556.012146,910.214844 
	C556.279602,905.243652 553.390869,900.518982 547.735107,899.215149 
	C541.758179,897.837341 535.473633,897.794006 528.857239,897.120239 
	C528.857239,905.216492 528.797852,911.995544 528.936646,918.770447 
	C528.952942,919.566589 530.059265,920.340332 531.629639,921.146362 
M538.362549,864.890381 
	C535.329163,864.612549 532.295837,864.334717 529.222168,864.053162 
	C529.222168,872.187500 529.222168,879.532104 529.222168,886.848572 
	C541.482361,887.351257 547.155823,884.474670 548.265259,877.402649 
	C549.284424,870.906189 546.539062,867.158508 538.362549,864.890381 
z"/>
<path fill="#B02E62" opacity="1.000000" stroke="none" 
	d="
M826.234619,931.047852 
	C814.630371,920.239319 803.308044,909.683594 791.870056,899.020142 
	C791.729126,899.596191 790.841003,901.609009 790.808411,903.635620 
	C790.656616,913.087219 790.741089,922.542664 790.741089,932.289734 
	C785.206726,932.289734 780.482666,932.289734 775.574463,932.289734 
	C775.574463,905.749878 775.574463,879.493530 775.574463,852.820801 
	C780.460999,852.820801 785.022339,852.820801 790.320435,852.820801 
	C790.320435,862.669250 790.320435,872.685059 790.320435,884.059448 
	C793.754883,881.157776 796.119995,879.188416 798.453613,877.182312 
	C805.022583,871.535400 812.258301,866.479370 817.973633,860.069275 
	C825.721008,851.379883 835.016418,851.218872 846.841675,852.789612 
	C832.171692,865.148315 818.369324,876.776001 804.107422,888.790894 
	C818.260132,903.209290 832.061401,917.269653 845.862671,931.330078 
	C845.682007,931.936646 845.501343,932.543213 845.320618,933.149780 
	C839.052612,932.533386 832.784607,931.917053 826.234619,931.047852 
z"/>
<path fill="#B02C60" opacity="1.000000" stroke="none" 
	d="
M262.419830,932.104126 
	C259.708435,926.872925 257.065186,922.046448 254.837769,917.035156 
	C253.623108,914.302429 251.957169,913.489197 249.081879,913.527649 
	C238.084137,913.674988 227.082214,913.669617 216.084259,913.530640 
	C213.255905,913.494934 211.312927,914.130493 210.221695,916.928345 
	C209.500732,918.776917 208.413437,920.484985 207.462509,922.240967 
	C200.841919,934.466614 200.694214,934.536316 185.558395,932.457336 
	C201.330215,904.112427 216.966202,876.011658 233.090942,847.032471 
	C248.648209,876.072876 263.679840,904.132080 279.254883,933.205627 
	C273.258484,932.926025 267.959900,932.678955 262.419830,932.104126 
M228.795074,883.280029 
	C225.520798,889.300659 222.246521,895.321228 218.889679,901.493652 
	C228.418076,901.493652 237.125046,901.493652 246.664703,901.493652 
	C242.058640,892.765259 237.785141,884.667114 233.101379,875.791504 
	C231.403168,878.688293 230.254913,880.646973 228.795074,883.280029 
z"/>
<path fill="#B02C60" opacity="1.000000" stroke="none" 
	d="
M575.530334,933.008728 
	C574.274170,932.971863 573.450073,932.935120 571.604187,932.852844 
	C587.392517,904.289734 602.922241,876.194458 618.990906,847.124084 
	C634.626465,876.283813 649.651123,904.304321 665.066711,933.053894 
	C659.731628,933.053894 655.152039,933.222290 650.601624,932.932861 
	C649.495300,932.862488 648.136169,931.486450 647.492004,930.366394 
	C645.007935,926.047485 642.640503,921.649536 640.486145,917.158020 
	C639.353760,914.797058 638.025574,913.663818 635.228210,913.688538 
	C623.748474,913.790222 612.265259,913.550964 600.787170,913.710815 
	C599.393433,913.730225 597.557373,915.106934 596.732178,916.377808 
	C594.567200,919.712036 592.424500,923.178650 591.052063,926.881226 
	C589.110535,932.118835 585.781738,933.986572 580.449951,933.047791 
	C578.996887,932.791931 577.460510,933.008911 575.530334,933.008728 
M606.507019,898.080017 
	C606.062500,899.226624 605.618042,900.373291 605.132874,901.624817 
	C614.296265,901.624817 622.980591,901.624817 632.225403,901.624817 
	C627.632751,892.918823 623.309937,884.724304 618.594482,875.785522 
	C614.425415,883.481750 610.651306,890.448914 606.507019,898.080017 
z"/>
<path fill="#B02D61" opacity="1.000000" stroke="none" 
	d="
M329.856262,887.918945 
	C327.426880,890.297791 328.324524,892.099915 329.817841,894.251587 
	C338.629974,906.948792 347.311676,919.736511 356.749756,933.535400 
	C350.826385,933.535400 345.936493,933.751038 341.090179,933.387024 
	C339.844574,933.293457 338.496796,931.540833 337.603302,930.265076 
	C331.431213,921.452454 325.367065,912.564209 318.834290,903.069641 
	C312.604004,911.858276 306.557404,919.946472 301.032837,928.376831 
	C298.471222,932.285828 295.719025,934.309021 290.928802,933.669495 
	C287.869720,933.261047 284.711792,933.593018 280.299286,933.593018 
	C290.754211,918.946777 300.552643,905.220215 310.591766,891.156494 
	C301.907227,878.712341 293.184631,866.213745 283.560059,852.422668 
	C289.644073,852.422668 294.415405,852.174744 299.131775,852.574524 
	C300.536713,852.693542 302.112457,854.404663 303.055237,855.769409 
	C308.253143,863.293884 313.279327,870.937012 318.809601,879.205017 
	C321.205719,875.895203 323.397247,872.897583 325.556427,869.876709 
	C327.394684,867.304810 329.682037,864.919678 330.927063,862.081787 
	C335.723480,851.148804 344.558502,851.263245 354.710236,853.126404 
	C346.388641,864.769653 338.222931,876.194824 329.856262,887.918945 
z"/>
<path fill="#AF2C60" opacity="1.000000" stroke="none" 
	d="
M452.087830,893.937622 
	C461.142151,905.551819 459.415039,918.990295 448.067932,927.508423 
	C432.769562,938.992798 408.860382,935.731506 399.841949,920.779114 
	C398.086884,917.869324 397.120697,914.483765 395.488495,910.598450 
	C401.052429,909.559692 405.835602,908.666626 411.111359,907.681641 
	C412.016815,915.924500 415.993561,921.671753 424.020844,922.277100 
	C428.518250,922.616333 433.819672,921.570618 437.665253,919.298279 
	C445.099091,914.905579 444.921204,904.674377 437.496002,900.262024 
	C432.276001,897.160156 426.196533,895.539429 420.637115,892.963257 
	C416.137665,890.878235 411.473846,888.850464 407.529388,885.925537 
	C398.491241,879.223572 398.196228,866.712463 406.454315,859.008179 
	C419.822449,846.536377 443.987518,849.153503 455.464081,864.748840 
	C452.244995,866.442200 449.196472,868.396423 445.875854,869.600281 
	C444.730682,870.015381 442.602722,868.911926 441.445190,867.903503 
	C434.907562,862.208252 426.168854,861.117004 419.813080,865.435425 
	C414.104309,869.314270 414.248932,875.950439 420.398956,878.913086 
	C425.321991,881.284668 430.690369,882.725769 435.638306,885.053406 
	C441.165100,887.653198 446.440491,890.787354 452.087830,893.937622 
z"/>
<path fill="#B02D61" opacity="1.000000" stroke="none" 
	d="
M383.734802,926.863525 
	C383.735046,929.126709 383.735046,930.908691 383.735046,932.902954 
	C378.436035,932.902954 373.705719,932.902954 368.836273,932.902954 
	C368.836273,906.238586 368.836273,879.848206 368.836273,852.951538 
	C373.824249,852.951538 378.506195,852.951538 383.734558,852.951538 
	C383.734558,877.603699 383.734558,901.992981 383.734802,926.863525 
z"/>
<path fill="#FEFDFE" opacity="1.000000" stroke="none" 
	d="
M531.144958,921.135376 
	C530.059265,920.340332 528.952942,919.566589 528.936646,918.770447 
	C528.797852,911.995544 528.857239,905.216492 528.857239,897.120239 
	C535.473633,897.794006 541.758179,897.837341 547.735107,899.215149 
	C553.390869,900.518982 556.279602,905.243652 556.012146,910.214844 
	C555.748108,915.119873 552.820190,918.809448 546.947632,919.945557 
	C541.951233,920.912170 536.743713,920.787964 531.144958,921.135376 
z"/>
<path fill="#FEFCFD" opacity="1.000000" stroke="none" 
	d="
M538.772827,864.947388 
	C546.539062,867.158508 549.284424,870.906189 548.265259,877.402649 
	C547.155823,884.474670 541.482361,887.351257 529.222168,886.848572 
	C529.222168,879.532104 529.222168,872.187500 529.222168,864.053162 
	C532.295837,864.334717 535.329163,864.612549 538.772827,864.947388 
z"/>
<path fill="#FCF7F9" opacity="1.000000" stroke="none" 
	d="
M228.950867,882.942871 
	C230.254913,880.646973 231.403168,878.688293 233.101379,875.791504 
	C237.785141,884.667114 242.058640,892.765259 246.664703,901.493652 
	C237.125046,901.493652 228.418076,901.493652 218.889679,901.493652 
	C222.246521,895.321228 225.520798,889.300659 228.950867,882.942871 
z"/>
<path fill="#FCF8FA" opacity="1.000000" stroke="none" 
	d="
M606.692139,897.748047 
	C610.651306,890.448914 614.425415,883.481750 618.594482,875.785522 
	C623.309937,884.724304 627.632751,892.918823 632.225403,901.624817 
	C622.980591,901.624817 614.296265,901.624817 605.132874,901.624817 
	C605.618042,900.373291 606.062500,899.226624 606.692139,897.748047 
z"/>
</svg>