<svg version="1.0" xmlns="http://www.w3.org/2000/svg" x="0px" y="0px"
     viewBox="0 0 500 600" xml:space="preserve">
<style type="text/css">
</style>
    <path fill="currentColor" class="st0" d="M172.5,330.05c21.48-20.97,50.64-31.72,79.8-34.27c45.02-1.02,89.52,23.53,112.03,62.41
	c-29.67,27.11-57.8,54.74-85.94,82.36c-25.58-8.18-50.64-18.42-75.71-27.62c-21.48,14.32-43.48,28.13-64.97,41.95
	C123.9,410.87,139.25,360.74,172.5,330.05z"/>
    <path fill="currentColor" class="st1" d="M364.33,358.18c3.58,7.67,6.65,15.35,10.23,23.02c-33.76,23.53-56.78,60.36-92.59,81.85
	c-25.58-3.07-47.57-20.97-73.66-24.04c-22,10.74-40.41,27.11-63.43,35.3c-2.56-6.14-5.12-12.79-7.16-19.44
	c21.48-13.81,43.48-27.62,64.97-41.95c25.07,9.21,50.13,19.44,75.71,27.62C306.52,412.92,334.66,385.29,364.33,358.18z"/>
    <path fill="currentColor" class="st2" d="M281.97,463.05c35.81-21.48,58.83-58.32,92.59-81.85c2.05,8.7,3.58,17.39,5.63,26.6
	c-30.18,20.97-56.27,47.57-82.36,73.15c-4.6,3.58-9.21,8.7-15.35,10.23c-26.09-1.53-48.08-19.95-74.17-22
	c-17.9,6.65-32.74,19.44-48.6,29.16c-5.12-7.67-10.23-15.86-14.83-24.04c23.02-8.18,41.43-24.55,63.43-35.3
	C234.39,442.07,256.39,459.98,281.97,463.05z"/>
    <path fill="currentColor" class="st5" d="M297.83,480.95c26.09-25.58,52.18-52.18,82.36-73.15c0.51,10.23,0,20.46-0.51,30.69
	c-27.11,18.93-51.67,40.92-74.17,65.48c-7.16,6.65-13.81,14.83-23.02,17.9c-25.07-2.05-46.04-18.42-70.59-22.51
	c-13.3,2.56-24.55,9.72-36.32,15.86c-5.12-5.63-10.74-11.25-15.86-16.88c15.86-9.72,30.69-22.51,48.6-29.16
	c26.09,2.05,48.08,20.46,74.17,22C288.62,489.65,293.22,484.53,297.83,480.95z"/>
    <path fill="currentColor" class="st4" d="M305.5,503.97c22.51-24.55,47.06-46.55,74.17-65.48c-7.67,59.34-62.41,106.91-122.26,106.91
	c-29.67,0-58.83-11.77-81.85-30.18c11.77-6.14,23.02-13.3,36.32-15.86c24.55,4.09,45.53,20.46,70.59,22.51
	C291.69,518.81,298.34,510.62,305.5,503.97z"/>
</svg>
