<svg version="1.1" xmlns="http://www.w3.org/2000/svg"
     viewBox="0 0 180 140" fill="currentColor"
     aria-hidden="true" focusable="false" data-prefix="fas" data-icon="lic-hfl" class="svg-inline--fa">
    <path fill="currentColor"
          d="
M19.269512,62.948109
	C16.342812,62.329468 13.440996,61.429916 10.482706,61.167839
	C7.250529,60.881504 3.790822,61.707554 1.368019,58.078011
	C1.000000,57.250000 1.000000,56.500000 1.335610,55.307613
	C3.362725,53.548313 4.961328,52.086063 6.759779,50.936455
	C30.684210,35.643436 54.629108,20.382376 78.593826,5.152568
	C80.978943,3.636809 83.527367,2.378042 86.000000,1.000001
	C86.750000,1.000000 87.500000,1.000000 88.625000,1.000000
	C102.197968,8.384110 115.395935,15.768222 128.862640,23.302691
	C128.862640,20.267839 128.862640,16.940165 128.862640,12.866583
	C134.067993,12.866583 138.820618,12.642841 143.519791,13.044548
	C144.529007,13.130821 146.034531,15.432648 146.125290,16.793016
	C146.445450,21.591234 145.965744,26.449116 146.390656,31.230940
	C146.559860,33.134892 147.845764,35.575104 149.397842,36.613354
	C157.119995,41.779049 165.085724,46.582401 172.997040,51.462551
	C175.889847,53.246990 177.601654,55.335308 175.004913,58.952339
	C174.292999,59.192062 174.128387,59.270630 173.550781,59.359505
	C168.607513,59.868668 164.077271,60.367527 159.114960,60.913960
	C159.114960,65.867294 159.123978,70.814102 159.113495,75.760864
	C159.047653,106.835274 158.977463,137.909683 158.446075,168.988831
	C112.327515,168.988647 66.671562,168.983719 21.010965,168.511490
	C21.004436,134.167084 21.002445,100.290001 21.001093,66.412918
	C21.001040,65.084427 21.007097,63.755928 21.010309,62.427433
	C20.430042,62.600990 19.849777,62.774548 19.269512,62.948109
M111.540070,77.882744
	C111.208687,77.798882 110.877296,77.715019 110.489349,77.519363
	C110.489349,77.519363 110.381203,77.456108 110.540840,76.881622
	C110.209358,76.796661 109.877869,76.711693 109.493416,76.515999
	C109.493416,76.515999 109.385773,76.456970 109.541946,75.882698
	C109.210808,75.802971 108.879662,75.723244 108.478409,75.530174
	C108.478409,75.530174 108.366951,75.457085 108.535339,74.886429
	C108.205414,74.805573 107.875496,74.724716 107.479134,74.529503
	C107.479134,74.529503 107.369209,74.455948 107.536354,73.884529
	C107.206108,73.800537 106.875870,73.716545 106.488434,73.520950
	C106.488434,73.520950 106.379448,73.458923 106.539764,72.889702
	C106.212059,72.819550 105.884346,72.749390 105.447647,72.559593
	C105.447647,72.559593 105.329559,72.448921 105.521873,71.889069
	C105.195641,71.805244 104.869408,71.721420 104.484749,71.524109
	C104.484749,71.524109 104.376457,71.456558 104.539703,70.883110
	C104.208534,70.800812 103.877357,70.718513 103.485626,70.523949
	C103.485626,70.523949 103.376045,70.458656 103.539139,69.889549
	C103.211189,69.819221 102.883247,69.748901 102.450272,69.558273
	C102.450272,69.558273 102.333809,69.449020 102.522896,68.889099
	C102.196762,68.808289 101.870636,68.727478 101.476738,68.530937
	C101.476738,68.530937 101.367638,68.452927 101.536827,67.876068
	C101.202896,67.771843 100.868958,67.667610 100.548660,67.466965
	C100.548660,67.466965 100.451653,67.458542 100.564362,66.862747
	C100.222687,66.761124 99.881020,66.659500 99.551361,66.461441
	C99.551361,66.461441 99.454193,66.461029 99.565346,65.864052
	C99.223473,65.760574 98.881607,65.657097 98.554565,65.458084
	C98.554565,65.458084 98.457916,65.460365 98.566643,64.862831
	C98.224525,64.759071 97.882408,64.655304 97.556595,64.456528
	C97.556595,64.456528 97.460251,64.460007 97.567429,63.862137
	C97.225151,63.758354 96.882881,63.654572 96.557426,63.455948
	C96.557426,63.455948 96.461189,63.459942 96.567703,62.861935
	C96.225365,62.758282 95.883026,62.654629 95.557304,62.456093
	C95.557304,62.456093 95.461052,62.459930 95.567657,61.861954
	C95.225334,61.758316 94.883011,61.654678 94.557274,61.456146
	C94.557274,61.456146 94.461014,61.459934 94.567612,60.861946
	C94.225273,60.758369 93.882927,60.654793 93.556053,60.438198
	C93.556053,60.438198 93.459694,60.499241 93.579742,59.870697
	C93.064987,59.573177 92.550224,59.275658 91.998978,58.999912
	C91.998978,58.999912 92.020706,58.963295 91.909729,58.326729
	C90.067627,56.992809 89.567368,57.336433 88.813942,60.859440
	C81.955345,67.598923 75.096756,74.338409 67.440865,81.017517
	C66.646477,79.875153 65.603485,78.825157 65.134209,77.562012
	C64.739311,76.499069 65.011795,75.188194 65.024956,73.204399
	C67.622490,64.178215 67.199738,62.267174 62.146656,60.193165
	C64.506226,56.549129 63.832203,55.084667 59.237877,53.876095
	C58.802258,55.858398 58.366634,57.840702 57.931015,59.823006
	C56.800705,54.055367 56.800705,54.055367 52.768730,53.440105
	C52.396637,55.673851 52.024544,57.907600 51.522682,60.920403
	C49.970837,58.277866 49.020657,56.659866 47.937531,54.815483
	C45.602100,61.119957 43.233601,66.586861 41.555099,72.257988
	C38.914928,81.178322 38.286575,90.503708 41.873962,99.099411
	C44.848877,106.227570 49.109978,113.016403 53.847157,119.147446
	C57.457169,123.819672 57.761276,127.389191 54.245743,131.788589
	C53.525249,132.690216 53.402695,134.069656 52.864513,135.636459
	C58.688686,135.636459 63.871433,135.988205 68.960121,135.450241
	C70.800537,135.255692 72.497971,133.018387 74.094429,131.534409
	C74.765480,130.910629 74.774902,129.501328 75.478035,128.997437
	C81.361237,124.781319 80.750511,119.622612 78.760071,114.001915
	C79.642883,113.833786 80.525688,113.665657 81.368393,113.583275
	C81.368393,113.583275 81.462891,113.577774 81.427452,114.148125
	C81.754646,114.220390 82.081833,114.292656 82.471550,114.461006
	C82.471550,114.461006 82.584862,114.478317 82.498070,115.145912
	C83.079765,115.348732 83.661461,115.551559 84.095108,115.858551
	C84.095108,115.858551 84.192627,115.706032 84.286896,116.326767
	C85.193520,116.557236 86.100136,116.787697 87.645912,117.010178
	C88.068848,117.017273 88.491776,117.024368 89.346992,117.508827
	C90.699921,117.383278 92.052856,117.257736 94.052765,117.207924
	C94.697784,117.136742 95.342796,117.065559 96.210640,117.318016
	C96.397484,117.107452 96.584320,116.896889 96.928459,116.785561
	C96.928459,116.785561 96.746445,116.747353 97.485222,116.849426
	C99.315422,116.901604 101.145615,116.953781 102.938187,117.759407
	C99.712463,125.683571 108.967468,128.873688 109.700203,135.330063
	C109.721436,135.517120 111.239082,135.656693 112.047714,135.612411
	C117.705376,135.302505 123.360062,134.938293 129.758255,134.545929
	C128.245209,131.912674 126.793564,130.185379 126.252739,128.208847
	C125.761856,126.414864 125.582230,123.955971 126.441544,122.470688
	C130.594482,115.292587 135.329529,108.450394 139.456131,101.258408
	C140.959518,98.638245 141.630554,95.431870 142.198608,92.402428
	C144.685287,79.141060 138.714279,67.509850 134.274170,53.809284
	C132.981354,57.272518 132.167664,59.452232 130.996368,62.589970
	C130.358063,58.845722 129.876633,56.021759 129.395218,53.197800
	C128.938919,52.977188 128.482620,52.756577 128.026306,52.535961
	C126.714859,54.810966 125.403404,57.085968 124.172371,59.221451
	C123.833244,57.456749 123.441620,55.418884 123.001869,53.130577
	C119.360901,55.018921 117.232895,56.717693 120.546707,60.375408
	C121.377220,61.292099 121.090736,63.220764 120.959496,65.037903
	C120.840210,65.155846 120.720932,65.273796 120.160805,64.809021
	C119.569427,63.484009 118.978058,62.158997 117.974785,59.911095
	C113.989349,66.225586 116.988930,71.062675 117.507774,76.047638
	C117.171532,76.479332 116.835289,76.911026 116.499054,77.342720
	C117.237129,77.565300 117.975212,77.787888 118.807442,78.813789
	C118.650040,79.869125 118.492638,80.924469 117.691750,81.976562
	C116.633392,81.851334 115.575035,81.726112 114.512215,81.495316
	C114.512215,81.495316 114.411469,81.463455 114.550926,80.880302
	C114.216019,80.797752 113.881104,80.715202 113.487526,80.521019
	C113.487526,80.521019 113.378296,80.457985 113.539375,79.883759
	C113.207932,79.800323 112.876480,79.716888 112.487190,79.521347
	C112.487190,79.521347 112.378403,79.457489 112.539589,78.883385
	C112.208214,78.799835 111.876831,78.716286 111.487961,78.520706
	C111.487961,78.520706 111.379402,78.456902 111.540070,77.882744
M58.902035,154.591461
	C58.204906,156.449020 57.266792,158.270554 56.980095,160.189438
	C56.908428,160.669128 58.934238,161.462189 60.128017,162.191910
	C60.128017,159.703506 60.128017,158.045013 60.904537,155.982132
	C64.402145,156.189362 67.899757,156.396591 71.634766,156.617889
	C71.849068,154.599945 72.012848,153.057709 72.140739,151.853409
	C74.970848,153.334030 77.718994,154.771774 80.768211,156.367020
	C81.164566,151.940430 81.542557,147.718887 81.924858,143.449158
	C66.740807,143.449158 50.933151,143.449158 35.125500,143.449158
	C34.975018,143.807877 34.824532,144.166595 34.674049,144.525314
	C35.824341,145.360870 36.974632,146.196411 38.159634,147.057159
	C37.048580,148.015671 36.130775,148.807449 35.360111,149.472290
	C36.933006,152.011154 38.296581,154.212128 40.459412,157.703201
	C40.459412,154.774811 40.459412,153.384872 40.459412,151.303726
	C46.655758,156.304916 52.536304,157.236343 58.554115,150.993469
	C58.722610,150.989182 58.891102,150.984909 59.129799,151.741150
	C59.187519,152.500656 59.245239,153.260162 58.902035,154.591461
M127.137527,156.096146
	C128.038773,155.536987 129.581467,155.101242 129.717361,154.394867
	C130.080978,152.504639 129.841278,150.498352 129.841278,149.945908
	C132.287094,151.943893 135.209366,154.331100 138.632874,157.127762
	C139.187973,151.897705 139.633560,147.699371 140.174072,142.606720
	C129.555542,142.606720 118.351585,142.606720 105.783173,142.606720
	C108.042923,140.472885 109.083488,139.490295 110.124046,138.507721
	C109.921173,138.147659 109.718292,137.787598 109.515419,137.427536
	C108.184914,137.973053 105.751152,138.443146 105.707840,139.076645
	C105.474495,142.489700 103.072784,144.041077 100.862778,145.857742
	C99.089394,143.459671 92.245949,141.521164 90.379593,143.159927
	C86.342140,146.705032 92.287239,147.536682 92.377876,149.949646
	C92.429779,151.331573 91.971016,152.732681 91.742157,154.125153
	C91.263977,154.031296 90.785797,153.937454 90.307617,153.843613
	C89.853813,152.280792 89.400017,150.717972 88.727509,148.401932
	C86.119408,151.944107 87.325760,154.845657 89.648193,155.565186
	C91.643211,156.183289 94.382927,154.397781 96.848923,153.658478
	C96.848160,153.655319 97.174469,155.010971 97.500778,156.366623
	C97.810028,156.357224 98.119278,156.347824 98.428528,156.338425
	C98.760796,154.953461 99.093071,153.568497 99.325340,152.600388
	C102.257561,153.903290 104.959572,155.103912 107.617043,156.284729
	C108.694397,154.981049 109.647438,153.827789 110.954803,152.245773
	C111.683487,154.080200 112.134537,155.215714 112.656189,156.528961
	C115.127007,155.924057 117.318146,155.387619 119.509277,154.851181
	C119.457741,155.107712 119.406204,155.364227 119.354668,155.620743
	C121.682915,155.762939 124.011169,155.905121 127.137527,156.096146
z"/>
    <path fill="#F3F5F8"
          d="
M77.861145,114.059586
	C80.750511,119.622612 81.361237,124.781319 75.478035,128.997437
	C74.774902,129.501328 74.765480,130.910629 74.094429,131.534409
	C72.497971,133.018387 70.800537,135.255692 68.960121,135.450241
	C63.871433,135.988205 58.688686,135.636459 52.864513,135.636459
	C53.402695,134.069656 53.525249,132.690216 54.245743,131.788589
	C57.761276,127.389191 57.457169,123.819672 53.847157,119.147446
	C49.109978,113.016403 44.848877,106.227570 41.873962,99.099411
	C38.286575,90.503708 38.914928,81.178322 41.555099,72.257988
	C43.233601,66.586861 45.602100,61.119957 47.937531,54.815483
	C49.020657,56.659866 49.970837,58.277866 51.522682,60.920403
	C52.024544,57.907600 52.396637,55.673851 52.768280,53.440346
	C56.800705,54.055367 56.800705,54.055367 57.931015,59.823006
	C58.366634,57.840702 58.802258,55.858398 59.238903,53.876869
	C63.832203,55.084667 64.506226,56.549129 62.146656,60.193165
	C67.199738,62.267174 67.622490,64.178215 64.776016,73.856110
	C64.301010,77.849426 64.074936,81.191025 63.642227,84.868378
	C63.451927,86.895691 63.468266,88.587257 63.511917,90.316452
	C63.539227,90.354088 63.539394,90.447083 63.659393,90.782188
	C65.158722,93.819305 66.538055,96.521309 67.929703,99.415581
	C68.011101,99.876495 68.172394,100.067131 68.530594,100.478104
	C69.010887,101.260704 69.386482,101.744965 69.825256,102.138229
	C69.888435,102.047234 69.721840,102.193283 69.748901,102.426544
	C69.875893,102.973366 70.068329,103.212418 70.390472,103.436180
	C70.427673,103.495392 70.471336,103.628242 70.575043,103.893082
	C71.255234,104.901634 71.831734,105.645332 72.426102,106.396507
	C72.443962,106.403984 72.424660,106.440109 72.585693,106.736328
	C74.451530,109.374901 76.156334,111.717239 77.861145,114.059586
z"/>
    <path fill="#F5F7F8"
          d="
M121.317604,64.684334 
	C121.090736,63.220764 121.377220,61.292099 120.546707,60.375408 
	C117.232895,56.717693 119.360901,55.018921 123.001869,53.130577 
	C123.441620,55.418884 123.833244,57.456749 124.172371,59.221451 
	C125.403404,57.085968 126.714859,54.810966 128.026306,52.535961 
	C128.482620,52.756577 128.938919,52.977188 129.395218,53.197800 
	C129.876633,56.021759 130.358063,58.845722 130.996368,62.589970 
	C132.167664,59.452232 132.981354,57.272518 134.274170,53.809284 
	C138.714279,67.509850 144.685287,79.141060 142.198608,92.402428 
	C141.630554,95.431870 140.959518,98.638245 139.456131,101.258408 
	C135.329529,108.450394 130.594482,115.292587 126.441544,122.470688 
	C125.582230,123.955971 125.761856,126.414864 126.252739,128.208847 
	C126.793564,130.185379 128.245209,131.912674 129.758255,134.545929 
	C123.360062,134.938293 117.705376,135.302505 112.047714,135.612411 
	C111.239082,135.656693 109.721436,135.517120 109.700203,135.330063 
	C108.967468,128.873688 99.712463,125.683571 103.176201,117.114304 
	C105.548996,113.150330 107.683777,109.831467 109.811127,106.490646 
	C109.803703,106.468689 109.836334,106.438568 110.045258,106.264427 
	C110.615685,105.468201 110.977196,104.846115 111.255798,104.165955 
	C111.172874,104.107872 111.289108,104.273651 111.538849,104.122009 
	C112.026390,103.442093 112.264198,102.913826 112.307312,102.294197 
	C112.112610,102.202835 112.518402,102.345459 112.725891,102.190254 
	C113.159035,101.572632 113.384697,101.110207 113.604218,100.590530 
	C113.598068,100.533279 113.589493,100.418442 113.808167,100.257599 
	C114.196449,99.777893 114.366074,99.459023 114.701241,99.050110 
	C115.046173,98.760628 115.122444,98.527466 115.384216,98.099152 
	C116.062355,96.957962 116.451889,95.978195 116.935020,94.756180 
	C117.005035,94.342430 116.981445,94.170921 117.093697,93.759109 
	C117.339806,93.171692 117.450073,92.824577 117.555054,92.440582 
	C117.549774,92.403694 117.476913,92.419357 117.695343,92.268341 
	C118.034149,91.788811 118.154533,91.460304 118.252617,91.144585 
	C118.230316,91.157379 118.282341,91.176399 118.554047,90.964951 
	C118.662247,87.828934 118.498741,84.904373 118.335236,81.979805 
	C118.492638,80.924469 118.650040,79.869125 118.847824,78.130875 
	C118.635307,76.951599 118.382416,76.455238 118.129524,75.958878 
	C116.988930,71.062675 113.989349,66.225586 117.974785,59.911095 
	C118.978058,62.158997 119.569427,63.484009 120.538689,65.288322 
	C121.050255,65.406525 121.183929,65.045425 121.317604,64.684334 
z"/>
    <path fill="#F6F8F9"
          d="
M95.987816,116.994377
	C95.342796,117.065559 94.697784,117.136742 93.278519,117.127312
	C91.307755,117.041626 90.111229,117.036552 88.914711,117.031471
	C88.491776,117.024368 88.068848,117.017273 87.076996,116.821991
	C85.736259,116.324554 84.964447,116.015297 84.192627,115.706032
	C84.192627,115.706032 84.095108,115.858551 84.042740,115.567406
	C83.521858,115.010284 83.053360,114.744301 82.584862,114.478317
	C82.584862,114.478317 82.471550,114.461006 82.329132,114.231728
	C81.995514,113.775558 81.754242,113.634003 81.462891,113.577774
	C81.462891,113.577774 81.368393,113.583275 81.218575,113.252266
	C78.860634,109.958351 75.470062,107.482689 76.988419,102.993454
	C77.000710,102.997627 76.991112,102.974854 77.234467,102.998764
	C77.477829,103.022667 77.959610,103.106750 78.009430,103.322998
	C78.130898,103.862709 78.326775,104.067116 78.899765,104.451187
	C82.445816,104.838379 85.739014,104.926857 89.309677,104.842209
	C88.730606,103.098633 87.874077,101.528191 86.979492,99.702965
	C86.895477,99.282707 86.849503,99.117241 86.845016,98.637497
	C86.616035,98.010521 86.345573,97.697823 86.071259,97.155830
	C85.986252,96.609016 85.797958,96.379364 85.484764,96.159630
	C85.466980,96.081673 85.421471,95.928368 85.350365,95.513626
	C83.714775,89.232681 88.290184,85.587135 89.722549,80.110939
	C91.574203,82.735161 92.775856,84.438194 93.827393,86.441147
	C93.574333,87.678741 93.471397,88.616402 93.368462,89.554054
	C94.025726,89.531502 94.682991,89.508942 95.340256,89.486389
	C95.099670,88.253937 94.859077,87.021492 94.558685,85.452515
	C92.801910,80.850410 91.104935,76.584839 89.360725,72.200539
	C87.727425,77.416534 86.117340,81.997444 84.889656,86.678650
	C84.087212,89.738373 83.839218,92.943497 82.956406,96.152954
	C79.816826,97.171852 77.063713,98.121300 74.360382,98.605644
	C74.410164,93.572914 74.410164,89.005287 74.410164,84.165146
	C71.436325,84.165146 69.019951,84.165146 65.993576,84.165146
	C66.974464,82.816002 67.606308,81.946945 68.238159,81.077888
	C75.096756,74.338409 81.955345,67.598923 89.253311,60.413033
	C90.468689,59.632183 91.244698,59.297737 92.020706,58.963295
	C92.020706,58.963295 91.998978,58.999912 92.108383,59.242722
	C92.631760,59.823437 93.045723,60.161339 93.459694,60.499241
	C93.459694,60.499241 93.556053,60.438198 93.654617,60.689281
	C93.936073,61.185837 94.172012,61.359024 94.461014,61.459934
	C94.461014,61.459934 94.557274,61.456146 94.655273,61.698177
	C94.936188,62.185638 95.172112,62.358879 95.461052,62.459930
	C95.461052,62.459930 95.557304,62.456093 95.655373,62.698090
	C95.936378,63.185486 96.172295,63.358772 96.461189,63.459942
	C96.461189,63.459942 96.557426,63.455948 96.655319,63.697857
	C96.935982,64.185074 97.171661,64.358490 97.460251,64.460007
	C97.460251,64.460007 97.556595,64.456528 97.654602,64.698212
	C97.935020,65.184799 98.170120,65.358292 98.457916,65.460365
	C98.457916,65.460365 98.554565,65.458084 98.653198,65.699356
	C98.933655,66.184662 99.167778,66.358131 99.454193,66.461029
	C99.454193,66.461029 99.551361,66.461441 99.651352,66.702087
	C99.931602,67.186867 100.165039,67.358803 100.451653,67.458542
	C100.451653,67.458542 100.548660,67.466965 100.633575,67.702805
	C100.884094,68.174156 101.100479,68.345589 101.367638,68.452927
	C101.367638,68.452927 101.476738,68.530937 101.602188,68.757904
	C101.884949,69.198036 102.086998,69.352745 102.333809,69.449020
	C102.333809,69.449020 102.450272,69.558273 102.600510,69.785629
	C102.913071,70.226234 103.121506,70.374786 103.376045,70.458656
	C103.376045,70.458656 103.485626,70.523949 103.611473,70.755722
	C103.902176,71.209518 104.115219,71.365875 104.376457,71.456558
	C104.376457,71.456558 104.484749,71.524109 104.602890,71.752502
	C104.878540,72.195847 105.081383,72.351852 105.329559,72.448921
	C105.329559,72.448921 105.447647,72.559593 105.601639,72.785454
	C105.918602,73.223198 106.126541,73.372398 106.379448,73.458923
	C106.379448,73.458923 106.488434,73.520950 106.613037,73.751129
	C106.902069,74.200851 107.112587,74.359070 107.369209,74.455948
	C107.369209,74.455948 107.479134,74.529503 107.608635,74.759209
	C107.901672,75.206848 108.111275,75.362907 108.366951,75.457085
	C108.366951,75.457085 108.478409,75.530174 108.613464,75.759369
	C108.914635,76.207680 109.127052,76.363815 109.385773,76.456970
	C109.385773,76.456970 109.493416,76.515999 109.617691,76.747139
	C109.908394,77.199966 110.121468,77.359238 110.381203,77.456108
	C110.381203,77.456108 110.489349,77.519363 110.615616,77.750191
	C110.907936,78.201866 111.120445,78.360497 111.379402,78.456902
	C111.379402,78.456902 111.487961,78.520706 111.614807,78.751328
	C111.907639,79.202423 112.119888,79.360931 112.378403,79.457489
	C112.378403,79.457489 112.487190,79.521347 112.614540,79.751770
	C112.907959,80.202408 113.120094,80.361008 113.378296,80.457985
	C113.378296,80.457985 113.487526,80.521019 113.620193,80.753906
	C113.925049,81.211098 114.144585,81.369980 114.411469,81.463455
	C114.411469,81.463455 114.512215,81.495316 114.685646,81.798088
	C115.539635,82.499458 116.220200,82.898064 116.933746,83.315987
	C116.614571,83.824440 116.282303,84.353737 115.511337,84.939514
	C107.840569,85.030090 107.830421,85.030113 107.845688,92.057907
	C107.850655,94.342606 107.923836,96.627159 107.595993,98.979477
	C104.855751,98.226540 102.485321,97.405891 99.847954,96.397461
	C98.279991,96.070770 96.978966,95.931847 95.589645,95.418533
	C95.224106,94.160538 94.946877,93.276939 94.341179,91.346451
	C93.842552,93.588264 93.596703,94.693588 93.219749,95.963165
	C93.006210,96.395485 92.909752,96.658417 92.529419,97.039856
	C92.187073,97.739227 92.114571,98.314957 92.025002,99.153099
	C92.004967,99.590805 92.001999,99.766090 91.864349,100.265434
	C91.373352,105.775261 92.891739,106.701012 100.500381,105.697296
	C101.574890,105.404572 102.271927,105.121368 103.252991,104.795639
	C103.648796,104.412514 103.760567,104.071922 104.219025,103.554932
	C104.941429,104.722435 106.074600,106.683456 105.566406,107.307213
	C102.852577,110.638184 99.728592,113.634987 96.746445,116.747353
	C96.746445,116.747353 96.928459,116.785561 96.628937,116.749084
	C96.329414,116.712601 95.987816,116.994377 95.987816,116.994377
z"/>
</svg>