<svg aria-hidden="true" focusable="false" data-prefix="fas" data-icon="pnb-bank" class="svg-inline--fa"
     xmlns="http://www.w3.org/2000/svg" viewBox="0 0 150 150" version="1.1">
    <path fill="currentColor"
          d="M 110.964844 44.117188 C 119.304688 44.117188 127.644531 44.113281 135.988281 44.117188 C 135.992188 76.566406 135.992188 109.007813 135.988281 141.453125 C 127.644531 141.457031 119.304688 141.453125 110.964844 141.453125 C 110.960938 133.472656 110.96875 125.496094 110.960938 117.519531 C 100.210938 121.445313 88.617188 124.210938 77.140625 122.40625 C 66.378906 120.8125 56.644531 114.925781 49.15625 107.191406 C 44.558594 102.304688 41.445313 96.105469 40.0625 89.546875 C 38.621094 82.972656 38.609375 76.179688 39.175781 69.5 C 39.425781 66.386719 38.96875 63.273438 38.527344 60.199219 C 37.734375 55.246094 36.558594 50.324219 34.601563 45.691406 C 42.019531 45.703125 49.433594 45.683594 56.847656 45.703125 C 58.628906 48.761719 59.914063 52.121094 60.492188 55.621094 C 62.042969 64.324219 60.179688 73.222656 61.703125 81.921875 C 62.613281 87.238281 65.414063 92.265625 69.679688 95.609375 C 75.316406 99.414063 82.277344 101.636719 89.105469 100.675781 C 101.402344 99.085938 111.585938 87.320313 110.972656 74.863281 C 110.953125 64.617188 110.96875 54.367188 110.964844 44.117188 Z M 81.800781 55.433594 C 86.878906 54.378906 92.347656 55.246094 96.800781 57.910156 C 102.238281 61.097656 106.113281 66.820313 106.960938 73.078125 C 107.722656 78.347656 106.382813 83.890625 103.261719 88.207031 C 99.726563 93.21875 93.914063 96.558594 87.785156 97 C 82.144531 97.484375 76.363281 95.535156 72.144531 91.769531 C 67.824219 87.984375 65.15625 82.371094 65.039063 76.621094 C 64.847656 71.066406 67.019531 65.5 70.882813 61.507813 C 73.792969 58.433594 77.660156 56.304688 81.800781 55.433594 "/>
</svg>
